# Created by Open3D 
# object name: tinker0
# number of vertices: 16
# number of triangles: 28
v 150 -40 90
vn 0.816497 -0.408248 0.408248
v 150 -40 0
vn 0.333333 -0.666667 -0.666667
v 150 40 0
vn 0.816497 0.408248 -0.408248
v 150 40 90
vn 0.333333 0.666667 0.666667
v -90 40 90
vn 0.301511 0.301511 0.904534
v -90 -40 90
vn 0.182574 -0.365148 0.912871
v -90 -40 0
vn 0.534522 -0.267261 -0.801784
v -90 40 0
vn 0.348155 0.348155 -0.870388
v -150 100 90
vn -0.534522 0.267261 0.801784
v -150 100 0
vn -0.333333 0.666667 -0.666667
v -150 -100 0
vn -0.534522 -0.267261 -0.801784
v -150 -100 90
vn -0.333333 -0.666667 0.666667
v -90 -100 90
vn 0.816497 -0.408248 0.408248
v -90 100 90
vn 0.666667 0.666667 0.333333
v -90 100 0
vn 0.57735 0.57735 -0.57735
v -90 -100 0
vn 0.408248 -0.816497 -0.408248
f 8//8 15//15 14//14
f 12//12 16//16 13//13
f 6//6 13//13 7//7
f 7//7 16//16 11//11
f 7//7 13//13 16//16
f 8//8 11//11 10//10
f 7//7 11//11 8//8
f 9//9 14//14 10//10
f 10//10 14//14 15//15
f 2//2 8//8 3//3
f 9//9 11//11 12//12
f 5//5 8//8 14//14
f 11//11 16//16 12//12
f 1//1 4//4 6//6
f 6//6 9//9 12//12
f 6//6 12//12 13//13
f 4//4 5//5 6//6
f 1//1 3//3 4//4
f 8//8 10//10 15//15
f 2//2 6//6 7//7
f 1//1 6//6 2//2
f 1//1 2//2 3//3
f 3//3 8//8 4//4
f 2//2 7//7 8//8
f 4//4 8//8 5//5
f 5//5 9//9 6//6
f 9//9 10//10 11//11
f 5//5 14//14 9//9
