# Created by Open3D 
# object name: tinker2
# number of vertices: 226
# number of triangles: 448
v 150 -40 90
vn 0.816497 -0.408248 0.408248
v 150 -40 0
vn 0.333333 -0.666667 -0.666667
v 150 40 0
vn 0.816497 0.408248 -0.408248
v 150 40 90
vn 0.333333 0.666667 0.666667
v -90 40 90
vn 0.301511 0.301511 0.904534
v -90 -40 90
vn 0.182574 -0.365148 0.912871
v -90 -40 0
vn 0.534522 -0.267261 -0.801784
v -90 40 0
vn 0.348155 0.348155 -0.870388
v -150 100 90
vn -0.534522 0.267261 0.801784
v -150 100 0
vn -0.333333 0.666667 -0.666667
v -150 -100 0
vn -0.534522 -0.267261 -0.801784
v -150 -100 90
vn -0.333333 -0.666667 0.666667
v -90 -100 90
vn 0.816497 -0.408248 0.408248
v -90 100 90
vn 0.666667 0.666667 0.333333
v -90 100 0
vn 0.57735 0.57735 -0.57735
v -90 -100 0
vn 0.408248 -0.816497 -0.408248
v 150 -40 45
vn 0.707107 -0.707107 0
v 150 0 0
vn 0.707107 0 -0.707107
v 150 0 45
vn 1 0 0
v 150 40 45
vn 0.707107 0.707107 0
v 150 0 90
vn 0.707107 0 0.707107
v 30 40 90
vn 0 0.707107 0.707107
v -90 0 90
vn 0 0 1
v 30 0 90
vn 0 0 1
v 30 -40 90
vn 0 -0.707107 0.707107
v 30 -40 0
vn 0 -0.707107 -0.707107
v -90 0 0
vn 0 0 -1
v 30 0 0
vn 0 0 -1
v 30 40 0
vn 0 0.707107 -0.707107
v -90 -40 45
vn 0.707107 -0.707107 0
v 30 -40 45
vn 0 -1 0
v 30 40 45
vn 0 1 0
v -90 40 45
vn 0.707107 0.707107 0
v -150 100 45
vn -0.707107 0.707107 0
v -150 0 0
vn -0.707107 0 -0.707107
v -150 0 45
vn -1 0 0
v -150 -100 45
vn -0.707107 -0.707107 0
v -150 0 90
vn -0.707107 0 0.707107
v -120 -70 90
vn 0 0 1
v -120 30 90
vn 0 0 1
v -90 -70 90
vn 0.707107 0 0.707107
v -120 -100 90
vn 0 -0.707107 0.707107
v -120 70 90
vn 0 0 1
v -120 100 90
vn 0 0.707107 0.707107
v -90 70 90
vn 0.707107 0 0.707107
v -90 100 45
vn 0.707107 0.707107 0
v -120 100 0
vn 0 0.707107 -0.707107
v -120 100 45
vn 0 1 0
v -120 70 0
vn 0 0 -1
v -120 -30 0
vn 0 0 -1
v -90 70 0
vn 0.707107 0 -0.707107
v -120 -70 0
vn 0 0 -1
v -120 -100 0
vn 0 -0.707107 -0.707107
v -90 -70 0
vn 0.707107 0 -0.707107
v -90 -100 45
vn 0.707107 -0.707107 0
v -90 -70 45
vn 1 0 0
v -120 -100 45
vn 0 -1 0
v -90 70 45
vn 1 0 0
v 150 -40 67.5
vn 0.707107 -0.707107 0
v 150 -20 45
vn 1 0 0
v 150 -20 67.5
vn 1 0 0
v 150 -40 22.5
vn 0.707107 -0.707107 0
v 150 -20 0
vn 0.707107 0 -0.707107
v 150 -20 22.5
vn 1 0 0
v 150 20 0
vn 0.707107 0 -0.707107
v 150 20 22.5
vn 1 0 0
v 150 0 22.5
vn 1 0 0
v 150 0 67.5
vn 1 0 0
v 150 -20 90
vn 0.707107 0 0.707107
v 150 40 22.5
vn 0.707107 0.707107 0
v 150 20 45
vn 1 0 0
v 150 40 67.5
vn 0.707107 0.707107 0
v 150 20 90
vn 0.707107 0 0.707107
v 150 20 67.5
vn 1 0 0
v 90 40 90
vn 0 0.707107 0.707107
v 30 20 90
vn 0 0 1
v 90 20 90
vn 0 0 1
v -30 40 90
vn 0 0.707107 0.707107
v -90 20 90
vn 0 0 1
v -30 20 90
vn 0 0 1
v -90 -20 90
vn 0 0 1
v -30 -20 90
vn 0 0 1
v -30 0 90
vn 0 0 1
v 90 0 90
vn 0 0 1
v -30 -40 90
vn 0 -0.707107 0.707107
v 30 -20 90
vn 0 0 1
v 90 -40 90
vn 0 -0.707107 0.707107
v 90 -20 90
vn 0 0 1
v 90 -40 0
vn 0 -0.707107 -0.707107
v 30 -20 0
vn 0 0 -1
v 90 -20 0
vn 0 0 -1
v -30 -40 0
vn 0 -0.707107 -0.707107
v -90 -20 0
vn 0 0 -1
v -30 -20 0
vn 0 0 -1
v -90 20 0
vn 0 0 -1
v -30 20 0
vn 0 0 -1
v -30 0 0
vn 0 0 -1
v 90 0 0
vn 0 0 -1
v -30 40 0
vn 0 0.707107 -0.707107
v 30 20 0
vn 0 0 -1
v 90 40 0
vn 0 0.707107 -0.707107
v 90 20 0
vn 0 0 -1
v -90 -40 67.5
vn 0.707107 -0.707107 0
v -30 -40 45
vn 0 -1 0
v -30 -40 67.5
vn 0 -1 0
v -90 -40 22.5
vn 0.707107 -0.707107 0
v -30 -40 22.5
vn 0 -1 0
v 90 -40 22.5
vn 0 -1 0
v 30 -40 22.5
vn 0 -1 0
v 30 -40 67.5
vn 0 -1 0
v 90 -40 45
vn 0 -1 0
v 90 -40 67.5
vn 0 -1 0
v 90 40 45
vn 0 1 0
v 90 40 67.5
vn 0 1 0
v 90 40 22.5
vn 0 1 0
v -30 40 22.5
vn 0 1 0
v 30 40 22.5
vn 0 1 0
v 30 40 67.5
vn 0 1 0
v -90 40 22.5
vn 0.707107 0.707107 0
v -30 40 45
vn 0 1 0
v -90 40 67.5
vn 0.707107 0.707107 0
v -30 40 67.5
vn 0 1 0
v -150 100 67.5
vn -0.707107 0.707107 0
v -150 50 45
vn -1 0 0
v -150 50 67.5
vn -1 0 0
v -150 100 22.5
vn -0.707107 0.707107 0
v -150 50 0
vn -0.707107 0 -0.707107
v -150 50 22.5
vn -1 0 0
v -150 -50 0
vn -0.707107 0 -0.707107
v -150 -50 22.5
vn -1 0 0
v -150 0 22.5
vn -1 0 0
v -150 0 67.5
vn -1 0 0
v -150 50 90
vn -0.707107 0 0.707107
v -150 -100 22.5
vn -0.707107 -0.707107 0
v -150 -50 45
vn -1 0 0
v -150 -100 67.5
vn -0.707107 -0.707107 0
v -150 -50 90
vn -0.707107 0 0.707107
v -150 -50 67.5
vn -1 0 0
v -135 -85 90
vn 0 0 1
v -135 -35 90
vn 0 0 1
v -105 -55 90
vn 0 0 1
v -105 -5 90
vn 0 0 1
v -120 -20 90
vn 0 0 1
v -135 65 90
vn 0 0 1
v -135 15 90
vn 0 0 1
v -90 -85 90
vn 0.707107 0 0.707107
v -105 -85 90
vn 0 0 1
v -105 -100 90
vn 0 -0.707107 0.707107
v -90 -55 90
vn 0.707107 0 0.707107
v -105 -70 90
vn 0 0 1
v -135 -100 90
vn 0 -0.707107 0.707107
v -120 -85 90
vn 0 0 1
v -105 15 90
vn 0 0 1
v -105 55 90
vn 0 0 1
v -105 35 90
vn 0 0 1
v -135 85 90
vn 0 0 1
v -120 50 90
vn 0 0 1
v -105 100 90
vn 0 0.707107 0.707107
v -105 85 90
vn 0 0 1
v -90 85 90
vn 0.707107 0 0.707107
v -135 100 90
vn 0 0.707107 0.707107
v -120 85 90
vn 0 0 1
v -90 55 90
vn 0.707107 0 0.707107
v -105 70 90
vn 0 0 1
v -90 100 67.5
vn 0.707107 0.707107 0
v -105 100 45
vn 0 1 0
v -105 100 67.5
vn 0 1 0
v -90 100 22.5
vn 0.707107 0.707107 0
v -105 100 0
vn 0 0.707107 -0.707107
v -105 100 22.5
vn 0 1 0
v -135 100 0
vn 0 0.707107 -0.707107
v -135 100 22.5
vn 0 1 0
v -120 100 22.5
vn 0 1 0
v -120 100 67.5
vn 0 1 0
v -135 100 45
vn 0 1 0
v -135 100 67.5
vn 0 1 0
v -135 85 0
vn 0 0 -1
v -135 35 0
vn 0 0 -1
v -105 55 0
vn 0 0 -1
v -105 5 0
vn 0 0 -1
v -120 20 0
vn 0 0 -1
v -135 -65 0
vn 0 0 -1
v -135 -15 0
vn 0 0 -1
v -90 85 0
vn 0.707107 0 -0.707107
v -105 85 0
vn 0 0 -1
v -90 55 0
vn 0.707107 0 -0.707107
v -105 70 0
vn 0 0 -1
v -120 85 0
vn 0 0 -1
v -105 -15 0
vn 0 0 -1
v -105 -55 0
vn 0 0 -1
v -105 -35 0
vn 0 0 -1
v -135 -85 0
vn 0 0 -1
v -120 -50 0
vn 0 0 -1
v -105 -100 0
vn 0 -0.707107 -0.707107
v -105 -85 0
vn 0 0 -1
v -90 -85 0
vn 0.707107 0 -0.707107
v -135 -100 0
vn 0 -0.707107 -0.707107
v -120 -85 0
vn 0 0 -1
v -90 -55 0
vn 0.707107 0 -0.707107
v -105 -70 0
vn 0 0 -1
v -90 -100 67.5
vn 0.707107 -0.707107 0
v -90 -85 45
vn 1 0 0
v -90 -85 67.5
vn 1 0 0
v -90 -100 22.5
vn 0.707107 -0.707107 0
v -90 -85 22.5
vn 1 0 0
v -90 -55 22.5
vn 1 0 0
v -90 -70 22.5
vn 1 0 0
v -90 -70 67.5
vn 1 0 0
v -90 -55 45
vn 1 0 0
v -90 -55 67.5
vn 1 0 0
v -135 -100 45
vn 0 -1 0
v -135 -100 67.5
vn 0 -1 0
v -135 -100 22.5
vn 0 -1 0
v -105 -100 22.5
vn 0 -1 0
v -120 -100 22.5
vn 0 -1 0
v -120 -100 67.5
vn 0 -1 0
v -105 -100 45
vn 0 -1 0
v -105 -100 67.5
vn 0 -1 0
v -90 70 22.5
vn 1 0 0
v -90 55 22.5
vn 1 0 0
v -90 85 22.5
vn 1 0 0
v -90 85 67.5
vn 1 0 0
v -90 85 45
vn 1 0 0
v -90 55 45
vn 1 0 0
v -90 70 67.5
vn 1 0 0
v -90 55 67.5
vn 1 0 0
f 224//224 225//225 226//226
f 33//33 224//224 226//226
f 58//58 225//225 224//224
f 121//121 226//226 163//163
f 45//45 163//163 226//226
f 160//160 225//225 222//222
f 14//14 160//160 222//222
f 58//58 222//222 225//225
f 119//119 220//220 224//224
f 58//58 224//224 220//220
f 8//8 220//220 119//119
f 219//219 221//221 223//223
f 46//46 223//223 221//221
f 51//51 221//221 219//219
f 14//14 222//222 165//165
f 168//168 221//221 184//184
f 46//46 221//221 168//168
f 15//15 168//168 184//184
f 51//51 184//184 221//221
f 186//186 219//219 220//220
f 58//58 220//220 219//219
f 51//51 219//219 186//186
f 13//13 148//148 201//201
f 55//55 217//217 204//204
f 151//151 212//212 216//216
f 42//42 151//151 216//216
f 211//211 213//213 215//215
f 57//57 216//216 212//212
f 53//53 215//215 213//213
f 194//194 214//214 215//215
f 57//57 215//215 214//214
f 16//16 214//214 194//194
f 53//53 213//213 197//197
f 42//42 216//216 218//218
f 11//11 197//197 134//134
f 42//42 218//218 148//148
f 37//37 134//134 213//213
f 37//37 211//211 136//136
f 12//12 136//136 212//212
f 208//208 209//209 210//210
f 30//30 210//210 209//209
f 56//56 209//209 208//208
f 6//6 149//149 103//103
f 106//106 209//209 206//206
f 30//30 209//209 106//106
f 7//7 106//106 206//206
f 146//146 203//203 208//208
f 13//13 203//203 146//146
f 202//202 205//205 207//207
f 56//56 202//202 207//207
f 54//54 207//207 205//205
f 55//55 205//205 202//202
f 199//199 206//206 207//207
f 56//56 207//207 206//206
f 41//41 208//208 210//210
f 7//7 206//206 199//199
f 54//54 199//199 207//207
f 196//196 205//205 204//204
f 54//54 205//205 196//196
f 16//16 196//196 204//204
f 201//201 202//202 203//203
f 58//58 219//219 223//223
f 56//56 203//203 202//202
f 195//195 198//198 200//200
f 204//204 217//217 214//214
f 52//52 200//200 198//198
f 53//53 198//198 195//195
f 54//54 200//200 199//199
f 7//7 199//199 190//190
f 52//52 198//198 192//192
f 53//53 197//197 198//198
f 54//54 196//196 195//195
f 36//36 125//125 124//124
f 153//153 155//155 157//157
f 9//9 123//123 125//125
f 118//118 120//120 122//122
f 32//32 120//120 118//118
f 22//22 122//122 78//78
f 75//75 114//114 118//118
f 48//48 167//167 166//166
f 32//32 118//118 114//114
f 24//24 84//84 77//77
f 34//34 123//123 176//176
f 29//29 117//117 115//115
f 38//38 132//132 138//138
f 20//20 115//115 113//113
f 8//8 116//116 99//99
f 48//48 174//174 167//167
f 24//24 82//82 86//86
f 27//27 94//94 93//93
f 148//148 218//218 201//201
f 29//29 115//115 101//101
f 33//33 226//226 121//121
f 18//18 102//102 65//65
f 32//32 114//114 113//113
f 20//20 113//113 72//72
f 41//41 210//210 149//149
f 19//19 71//71 68//68
f 4//4 72//72 114//114
f 31//31 111//111 110//110
f 25//25 88//88 86//86
f 35//35 127//127 178//178
f 25//25 112//112 87//87
f 33//33 122//122 120//120
f 1//1 87//87 59//59
f 17//17 59//59 112//112
f 17//17 111//111 62//62
f 70//70 101//101 115//115
f 11//11 134//134 130//130
f 43//43 154//154 164//164
f 85//85 105//105 110//110
f 12//12 139//139 137//137
f 30//30 107//107 104//104
f 129//129 183//183 182//182
f 2//2 108//108 89//89
f 113//113 115//115 117//117
f 13//13 201//201 203//203
f 26//26 89//89 109//109
f 47//47 171//171 173//173
f 26//26 107//107 92//92
f 22//22 75//75 118//118
f 7//7 92//92 106//106
f 192//192 198//198 197//197
f 33//33 120//120 119//119
f 30//30 106//106 107//107
f 30//30 104//104 103//103
f 98//98 100//100 102//102
f 3//3 65//65 101//101
f 216//216 217//217 218//218
f 4//4 73//73 72//72
f 8//8 179//179 186//186
f 29//29 100//100 99//99
f 53//53 194//194 215//215
f 44//44 158//158 174//174
f 15//15 169//169 168//168
f 31//31 110//110 105//105
f 82//82 85//85 86//86
f 57//57 214//214 217//217
f 29//29 99//99 117//117
f 63//63 91//91 98//98
f 89//89 108//108 109//109
f 18//18 63//63 98//98
f 2//2 91//91 63//63
f 65//65 102//102 101//101
f 57//57 217//217 216//216
f 116//116 119//119 120//120
f 44//44 174//174 176//176
f 49//49 181//181 178//178
f 90//90 94//94 97//97
f 11//11 182//182 192//192
f 50//50 193//193 182//182
f 19//19 60//60 67//67
f 53//53 195//195 194//194
f 154//154 163//163 164//164
f 104//104 107//107 109//109
f 8//8 186//186 220//220
f 18//18 98//98 102//102
f 28//28 90//90 97//97
f 25//25 86//86 85//85
f 4//4 75//75 77//77
f 23//23 80//80 79//79
f 47//47 173//173 170//170
f 21//21 68//68 74//74
f 12//12 137//137 136//136
f 51//51 187//187 185//185
f 55//55 204//204 205//205
f 194//194 195//195 196//196
f 52//52 191//191 190//190
f 59//59 87//87 112//112
f 129//129 130//130 131//131
f 22//22 118//118 122//122
f 165//165 166//166 167//167
f 58//58 223//223 222//222
f 17//17 64//64 60//60
f 72//72 113//113 114//114
f 140//140 143//143 145//145
f 141//141 150//150 149//149
f 89//89 90//90 91//91
f 3//3 70//70 66//66
f 25//25 110//110 112//112
f 35//35 178//178 183//183
f 10//10 127//127 126//126
f 24//24 77//77 76//76
f 99//99 116//116 117//117
f 72//72 73//73 74//74
f 62//62 111//111 108//108
f 28//28 97//97 96//96
f 21//21 69//69 68//68
f 10//10 171//171 177//177
f 39//39 139//139 152//152
f 66//66 70//70 71//71
f 103//103 149//149 210//210
f 5//5 78//78 121//121
f 6//6 82//82 81//81
f 2//2 63//63 62//62
f 134//134 197//197 213//213
f 56//56 208//208 203//203
f 6//6 105//105 85//85
f 23//23 81//81 83//83
f 125//125 132//132 133//133
f 1//1 69//69 87//87
f 31//31 109//109 108//108
f 57//57 211//211 215//215
f 43//43 157//157 155//155
f 4//4 114//114 75//75
f 26//26 90//90 89//89
f 133//133 145//145 144//144
f 29//29 102//102 100//100
f 19//19 61//61 60//60
f 17//17 60//60 59//59
f 110//110 111//111 112//112
f 17//17 112//112 111//111
f 126//126 175//175 172//172
f 56//56 206//206 209//209
f 62//62 63//63 64//64
f 6//6 85//85 82//82
f 26//26 94//94 90//90
f 44//44 176//176 161//161
f 55//55 201//201 218//218
f 29//29 101//101 102//102
f 24//24 86//86 84//84
f 27//27 97//97 94//94
f 20//20 72//72 74//74
f 34//34 126//126 128//128
f 42//42 148//148 147//147
f 30//30 103//103 210//210
f 18//18 65//65 67//67
f 28//28 96//96 100//100
f 32//32 117//117 116//116
f 76//76 80//80 83//83
f 5//5 79//79 78//78
f 55//55 202//202 201//201
f 127//127 177//177 178//178
f 40//40 142//142 153//153
f 25//25 87//87 88//88
f 55//55 218//218 217//217
f 18//18 64//64 63//63
f 159//159 162//162 164//164
f 78//78 79//79 80//80
f 50//50 183//183 181//181
f 19//19 67//67 66//66
f 8//8 95//95 180//180
f 75//75 76//76 77//77
f 34//34 176//176 175//175
f 81//81 82//82 83//83
f 45//45 226//226 225//225
f 92//92 93//93 94//94
f 33//33 119//119 224//224
f 10//10 177//177 127//127
f 18//18 67//67 64//64
f 45//45 160//160 159//159
f 166//166 170//170 173//173
f 20//20 74//74 71//71
f 46//46 165//165 223//223
f 6//6 141//141 149//149
f 23//23 83//83 80//80
f 22//22 80//80 76//76
f 24//24 76//76 83//83
f 8//8 99//99 96//96
f 4//4 77//77 73//73
f 28//28 91//91 90//90
f 3//3 66//66 65//65
f 31//31 105//105 104//104
f 73//73 77//77 84//84
f 21//21 73//73 84//84
f 26//26 109//109 107//107
f 17//17 62//62 64//64
f 31//31 108//108 111//111
f 96//96 99//99 100//100
f 45//45 164//164 163//163
f 136//136 137//137 138//138
f 27//27 95//95 97//97
f 61//61 68//68 69//69
f 3//3 101//101 70//70
f 54//54 195//195 200//200
f 38//38 133//133 132//132
f 23//23 155//155 153//153
f 22//22 78//78 80//80
f 190//190 199//199 200//200
f 124//124 128//128 131//131
f 21//21 88//88 69//69
f 139//139 151//151 152//152
f 40//40 153//153 157//157
f 103//103 104//104 105//105
f 156//156 162//162 161//161
f 6//6 81//81 142//142
f 78//78 122//122 121//121
f 8//8 119//119 116//116
f 28//28 100//100 98//98
f 165//165 222//222 223//223
f 1//1 59//59 61//61
f 19//19 68//68 61//61
f 24//24 83//83 82//82
f 57//57 212//212 211//211
f 35//35 128//128 127//127
f 36//36 132//132 125//125
f 52//52 190//190 200//200
f 32//32 113//113 117//117
f 35//35 129//129 131//131
f 95//95 96//96 97//97
f 11//11 130//130 129//129
f 36//36 131//131 130//130
f 2//2 62//62 108//108
f 34//34 128//128 124//124
f 137//137 139//139 140//140
f 13//13 146//146 148//148
f 36//36 124//124 131//131
f 40//40 157//157 144//144
f 2//2 89//89 91//91
f 9//9 125//125 133//133
f 43//43 162//162 156//156
f 36//36 130//130 135//135
f 5//5 163//163 154//154
f 33//33 121//121 122//122
f 8//8 180//180 179//179
f 37//37 135//135 134//134
f 34//34 175//175 126//126
f 52//52 193//193 191//191
f 130//130 134//134 135//135
f 38//38 138//138 137//137
f 36//36 135//135 132//132
f 21//21 84//84 88//88
f 37//37 138//138 135//135
f 6//6 103//103 105//105
f 132//132 135//135 138//138
f 39//39 140//140 139//139
f 35//35 131//131 128//128
f 38//38 137//137 140//140
f 6//6 142//142 141//141
f 20//20 70//70 115//115
f 68//68 71//71 74//74
f 141//141 142//142 143//143
f 41//41 146//146 208//208
f 123//123 124//124 125//125
f 41//41 149//149 150//150
f 40//40 144//144 145//145
f 26//26 92//92 94//94
f 9//9 133//133 144//144
f 38//38 145//145 133//133
f 42//42 152//152 151//151
f 51//51 186//186 187//187
f 39//39 143//143 140//140
f 42//42 147//147 152//152
f 41//41 147//147 146//146
f 146//146 147//147 148//148
f 21//21 74//74 73//73
f 168//168 169//169 170//170
f 39//39 150//150 141//141
f 22//22 76//76 75//75
f 47//47 170//170 169//169
f 16//16 194//194 196//196
f 39//39 152//152 150//150
f 147//147 150//150 152//152
f 60//60 64//64 67//67
f 79//79 154//154 155//155
f 23//23 153//153 81//81
f 50//50 189//189 193//193
f 136//136 211//211 212//212
f 81//81 153//153 142//142
f 23//23 79//79 155//155
f 7//7 93//93 92//92
f 46//46 166//166 165//165
f 27//27 191//191 189//189
f 28//28 98//98 91//91
f 5//5 154//154 79//79
f 43//43 155//155 154//154
f 16//16 204//204 214//214
f 11//11 192//192 197//197
f 47//47 188//188 171//171
f 48//48 175//175 174//174
f 20//20 71//71 70//70
f 50//50 181//181 180//180
f 43//43 156//156 157//157
f 9//9 144//144 156//156
f 158//158 167//167 174//174
f 144//144 157//157 156//156
f 37//37 136//136 138//138
f 49//49 178//178 177//177
f 48//48 166//166 173//173
f 44//44 159//159 158//158
f 158//158 159//159 160//160
f 126//126 127//127 128//128
f 44//44 161//161 162//162
f 27//27 189//189 95//95
f 9//9 156//156 161//161
f 44//44 162//162 159//159
f 43//43 164//164 162//162
f 5//5 121//121 163//163
f 38//38 140//140 145//145
f 41//41 150//150 147//147
f 45//45 159//159 164//164
f 14//14 165//165 167//167
f 84//84 86//86 88//88
f 35//35 183//183 129//129
f 37//37 213//213 211//211
f 34//34 124//124 123//123
f 171//171 172//172 173//173
f 10//10 172//172 171//171
f 45//45 225//225 160//160
f 14//14 158//158 160//160
f 47//47 185//185 188//188
f 46//46 168//168 170//170
f 48//48 173//173 172//172
f 32//32 116//116 120//120
f 40//40 145//145 143//143
f 46//46 170//170 166//166
f 14//14 167//167 158//158
f 31//31 104//104 109//109
f 48//48 172//172 175//175
f 10//10 126//126 172//172
f 19//19 66//66 71//71
f 185//185 187//187 188//188
f 9//9 161//161 123//123
f 123//123 161//161 176//176
f 174//174 175//175 176//176
f 49//49 179//179 181//181
f 1//1 61//61 69//69
f 49//49 188//188 187//187
f 25//25 85//85 110//110
f 179//179 180//180 181//181
f 8//8 96//96 95//95
f 50//50 182//182 183//183
f 11//11 129//129 182//182
f 40//40 143//143 142//142
f 178//178 181//181 183//183
f 15//15 184//184 169//169
f 51//51 185//185 184//184
f 12//12 151//151 139//139
f 47//47 169//169 185//185
f 169//169 184//184 185//185
f 12//12 212//212 151//151
f 92//92 107//107 106//106
f 27//27 93//93 191//191
f 69//69 88//88 87//87
f 49//49 187//187 179//179
f 179//179 187//187 186//186
f 39//39 141//141 143//143
f 49//49 177//177 188//188
f 171//171 188//188 177//177
f 50//50 180//180 189//189
f 95//95 189//189 180//180
f 7//7 190//190 93//93
f 93//93 190//190 191//191
f 52//52 192//192 193//193
f 65//65 66//66 67//67
f 182//182 193//193 192//192
f 59//59 60//60 61//61
f 189//189 191//191 193//193
