# Created by Open3D 
# object name: tinker1
# number of vertices: 58
# number of triangles: 112
v 150 -40 90
vn 0.816497 -0.408248 0.408248
v 150 -40 0
vn 0.333333 -0.666667 -0.666667
v 150 40 0
vn 0.816497 0.408248 -0.408248
v 150 40 90
vn 0.333333 0.666667 0.666667
v -90 40 90
vn 0.301511 0.301511 0.904534
v -90 -40 90
vn 0.182574 -0.365148 0.912871
v -90 -40 0
vn 0.534522 -0.267261 -0.801784
v -90 40 0
vn 0.348155 0.348155 -0.870388
v -150 100 90
vn -0.534522 0.267261 0.801784
v -150 100 0
vn -0.333333 0.666667 -0.666667
v -150 -100 0
vn -0.534522 -0.267261 -0.801784
v -150 -100 90
vn -0.333333 -0.666667 0.666667
v -90 -100 90
vn 0.816497 -0.408248 0.408248
v -90 100 90
vn 0.666667 0.666667 0.333333
v -90 100 0
vn 0.57735 0.57735 -0.57735
v -90 -100 0
vn 0.408248 -0.816497 -0.408248
v 150 -40 45
vn 0.707107 -0.707107 0
v 150 0 0
vn 0.707107 0 -0.707107
v 150 0 45
vn 1 0 0
v 150 40 45
vn 0.707107 0.707107 0
v 150 0 90
vn 0.707107 0 0.707107
v 30 40 90
vn 0 0.707107 0.707107
v -90 0 90
vn 0 0 1
v 30 0 90
vn 0 0 1
v 30 -40 90
vn 0 -0.707107 0.707107
v 30 -40 0
vn 0 -0.707107 -0.707107
v -90 0 0
vn 0 0 -1
v 30 0 0
vn 0 0 -1
v 30 40 0
vn 0 0.707107 -0.707107
v -90 -40 45
vn 0.707107 -0.707107 0
v 30 -40 45
vn 0 -1 0
v 30 40 45
vn 0 1 0
v -90 40 45
vn 0.707107 0.707107 0
v -150 100 45
vn -0.707107 0.707107 0
v -150 0 0
vn -0.707107 0 -0.707107
v -150 0 45
vn -1 0 0
v -150 -100 45
vn -0.707107 -0.707107 0
v -150 0 90
vn -0.707107 0 0.707107
v -120 -70 90
vn 0 0 1
v -120 30 90
vn 0 0 1
v -90 -70 90
vn 0.707107 0 0.707107
v -120 -100 90
vn 0 -0.707107 0.707107
v -120 70 90
vn 0 0 1
v -120 100 90
vn 0 0.707107 0.707107
v -90 70 90
vn 0.707107 0 0.707107
v -90 100 45
vn 0.707107 0.707107 0
v -120 100 0
vn 0 0.707107 -0.707107
v -120 100 45
vn 0 1 0
v -120 70 0
vn 0 0 -1
v -120 -30 0
vn 0 0 -1
v -90 70 0
vn 0.707107 0 -0.707107
v -120 -70 0
vn 0 0 -1
v -120 -100 0
vn 0 -0.707107 -0.707107
v -90 -70 0
vn 0.707107 0 -0.707107
v -90 -100 45
vn 0.707107 -0.707107 0
v -90 -70 45
vn 1 0 0
v -120 -100 45
vn 0 -1 0
v -90 70 45
vn 1 0 0
f 33//33 58//58 45//45
f 5//5 33//33 45//45
f 8//8 58//58 33//33
f 14//14 58//58 46//46
f 42//42 57//57 55//55
f 16//16 55//55 57//57
f 12//12 57//57 42//42
f 16//16 57//57 53//53
f 12//12 37//37 57//57
f 30//30 41//41 56//56
f 6//6 41//41 30//30
f 8//8 51//51 58//58
f 13//13 56//56 41//41
f 54//54 56//56 55//55
f 16//16 54//54 55//55
f 13//13 55//55 56//56
f 7//7 54//54 52//52
f 11//11 52//52 53//53
f 16//16 53//53 54//54
f 27//27 52//52 50//50
f 14//14 45//45 58//58
f 47//47 51//51 49//49
f 10//10 47//47 49//49
f 20//20 29//29 32//32
f 7//7 56//56 54//54
f 11//11 35//35 50//50
f 8//8 32//32 29//29
f 52//52 54//54 53//53
f 10//10 35//35 34//34
f 4//4 20//20 32//32
f 22//22 23//23 24//24
f 11//11 50//50 52//52
f 17//17 25//25 31//31
f 7//7 26//26 30//30
f 6//6 31//31 25//25
f 2//2 31//31 26//26
f 6//6 30//30 31//31
f 9//9 38//38 40//40
f 18//18 28//28 29//29
f 26//26 31//31 30//30
f 4//4 24//24 21//21
f 1//1 25//25 17//17
f 14//14 44//44 45//45
f 8//8 29//29 28//28
f 5//5 43//43 23//23
f 3//3 18//18 29//29
f 35//35 49//49 50//50
f 26//26 27//27 28//28
f 1//1 17//17 19//19
f 2//2 26//26 28//28
f 2//2 17//17 31//31
f 17//17 18//18 19//19
f 3//3 29//29 20//20
f 2//2 18//18 17//17
f 1//1 19//19 21//21
f 3//3 20//20 19//19
f 34//34 44//44 48//48
f 19//19 20//20 21//21
f 7//7 27//27 26//26
f 5//5 23//23 22//22
f 7//7 52//52 27//27
f 6//6 24//24 23//23
f 46//46 47//47 48//48
f 10//10 34//34 48//48
f 8//8 27//27 50//50
f 6//6 25//25 24//24
f 38//38 39//39 40//40
f 1//1 21//21 25//25
f 21//21 24//24 25//25
f 4//4 32//32 22//22
f 8//8 28//28 27//27
f 8//8 33//33 32//32
f 5//5 22//22 33//33
f 3//3 19//19 18//18
f 22//22 32//32 33//33
f 46//46 58//58 51//51
f 9//9 34//34 36//36
f 6//6 40//40 39//39
f 7//7 30//30 56//56
f 11//11 36//36 35//35
f 34//34 35//35 36//36
f 9//9 36//36 38//38
f 11//11 37//37 36//36
f 12//12 38//38 37//37
f 9//9 40//40 43//43
f 43//43 45//45 44//44
f 2//2 28//28 18//18
f 15//15 51//51 47//47
f 37//37 53//53 57//57
f 12//12 39//39 38//38
f 13//13 42//42 55//55
f 6//6 39//39 41//41
f 4//4 21//21 20//20
f 6//6 23//23 40//40
f 11//11 53//53 37//37
f 14//14 48//48 44//44
f 12//12 42//42 39//39
f 39//39 42//42 41//41
f 23//23 43//43 40//40
f 15//15 46//46 51//51
f 9//9 43//43 44//44
f 5//5 45//45 43//43
f 14//14 46//46 48//48
f 36//36 37//37 38//38
f 15//15 47//47 46//46
f 10//10 48//48 47//47
f 9//9 44//44 34//34
f 10//10 49//49 35//35
f 8//8 50//50 49//49
f 13//13 41//41 42//42
f 4//4 22//22 24//24
f 8//8 49//49 51//51
