# Blender v2.92.0 OBJ File: 'finger_short.blend'
# www.blender.org
mtllib finger_short.mtl
o Finger
v -70.693085 0.000000 -5.000000
v -70.693085 7.500000 -5.000000
v -70.693085 15.000000 -5.000000
v -66.856445 15.000000 -10.000000
v -66.856445 8.602015 -10.000000
v -63.019814 15.000000 -15.000000
v -63.019814 7.500000 -15.000000
v -68.331421 3.916527 -8.077778
v -63.019814 0.000000 -15.000000
v -65.449684 3.896935 -11.833333
v -66.856445 0.000000 -10.000000
v -55.519814 15.000000 -15.000000
v -48.019814 15.000000 -15.000000
v -55.519814 7.500000 -15.000000
v -48.019814 7.500000 -15.000000
v -55.519814 0.000000 -15.000000
v -59.269814 3.750000 -15.000000
v -59.269814 11.250000 -15.000000
v -51.769814 3.750000 -15.000000
v -48.019814 0.000000 -15.000000
v -44.183178 15.000000 -10.000000
v -44.183178 8.602015 -10.000000
v -40.346542 15.000000 -5.000000
v -40.346542 7.500000 -5.000000
v -45.589947 3.896935 -11.833333
v -40.346542 0.000000 -5.000000
v -42.708206 3.916527 -8.077778
v -44.183178 0.000000 -10.000000
v -36.509907 15.000000 -10.000000
v -36.509907 8.602015 -10.000000
v -32.673275 15.000000 -15.000000
v -32.673275 7.500000 -15.000000
v -37.916676 3.896935 -8.166667
v -32.673275 0.000000 -15.000000
v -35.034935 3.916527 -11.922222
v -36.509907 0.000000 -10.000000
v -17.673273 0.000000 -15.000000
v -25.173273 0.000000 -15.000000
v -21.423273 3.750000 -15.000000
v -17.673273 15.000000 -15.000000
v -21.423273 11.250000 -15.000000
v -25.173273 15.000000 -15.000000
v -28.923273 11.250000 -15.000000
v -25.173273 7.500000 -15.000000
v -28.923273 3.750000 -15.000000
v -17.673273 7.500000 -15.000000
v -13.836637 15.000000 -10.000000
v -13.836637 8.602015 -10.000000
v -10.000000 15.000000 -5.000000
v -10.000000 7.500000 -5.000000
v -15.311610 3.916527 -11.922222
v -10.000000 0.000000 -5.000000
v -12.429870 3.896935 -8.166667
v -13.836637 0.000000 -10.000000
v 0.000000 0.000000 -5.000000
v -5.000000 4.616667 -5.000000
v 0.000000 15.000000 -5.000000
v -5.000000 10.250000 -5.000000
v 0.000000 7.500000 -5.000000
v 0.000000 7.500000 0.000000
v 0.000000 11.250000 -2.500000
v 0.000000 15.000000 0.000000
v 0.000000 3.750000 -2.500000
v 0.000000 0.000000 0.000000
v -7.752477 7.688466 0.000000
v -10.336636 0.000000 0.000000
v -10.336636 15.000000 0.000000
v -70.609505 0.000000 0.000000
v -70.609505 15.000000 0.000000
v -67.188133 7.500000 0.000000
v -31.009907 15.000000 0.000000
v -36.178223 7.500000 0.000000
v -25.841589 7.500000 0.000000
v -62.019814 0.000000 0.000000
v -31.009907 0.000000 0.000000
v -62.019814 15.000000 0.000000
v -41.346542 15.000000 0.000000
v -46.514858 7.500000 0.000000
v -41.346542 0.000000 0.000000
v -20.673271 15.000000 0.000000
v -20.673271 0.000000 0.000000
v -51.683178 15.000000 0.000000
v -51.683178 0.000000 0.000000
v -15.504953 7.500000 0.000000
v -56.851494 7.500000 0.000000
v -35.270332 0.000000 -4.555514
v -28.861172 0.000000 -7.795861
v -20.688635 0.000000 -8.396819
v -59.384525 0.000000 -7.832095
v -51.182590 0.000000 -8.482860
v -5.112212 0.000000 -2.387788
v -15.239675 0.000000 -4.072676
v -46.003891 0.000000 -4.342268
v -65.310287 0.000000 -4.842623
v -67.761780 0.000000 -2.093498
v -35.270332 15.000000 -4.555514
v -20.688635 15.000000 -8.396819
v -28.861172 15.000000 -7.795861
v -51.135334 15.000000 -8.503840
v -59.420395 15.000000 -7.784961
v -5.112212 15.000000 -2.387788
v -15.239675 15.000000 -4.072676
v -46.082188 15.000000 -4.297960
v -65.099701 15.000000 -4.680023
v -67.726677 15.000000 -2.066398
vn -0.7934 0.0000 -0.6088
vn 0.0000 0.0000 -1.0000
vn 0.7934 0.0000 -0.6088
vn 1.0000 0.0000 0.0000
vn 0.0000 0.0000 1.0000
vn 0.0000 -1.0000 0.0000
vn 0.0000 1.0000 0.0000
vn -0.9999 0.0000 0.0167
usemtl None
s off
f 3//1 4//1 5//1
f 4//1 6//1 5//1
f 3//1 5//1 2//1
f 7//1 5//1 6//1
f 1//1 2//1 8//1
f 7//1 9//1 10//1
f 11//1 10//1 9//1
f 11//1 1//1 8//1
f 5//1 10//1 8//1
f 11//1 8//1 10//1
f 2//1 5//1 8//1
f 7//1 10//1 5//1
f 12//2 13//2 14//2
f 15//2 14//2 13//2
f 16//2 9//2 17//2
f 12//2 18//2 6//2
f 7//2 6//2 18//2
f 12//2 14//2 18//2
f 15//2 19//2 14//2
f 7//2 14//2 17//2
f 7//2 18//2 14//2
f 16//2 17//2 19//2
f 14//2 19//2 17//2
f 7//2 17//2 9//2
f 15//2 20//2 19//2
f 16//2 19//2 20//2
f 21//3 22//3 13//3
f 23//3 22//3 21//3
f 15//3 13//3 22//3
f 23//3 24//3 22//3
f 15//3 25//3 20//3
f 26//3 27//3 24//3
f 26//3 28//3 27//3
f 28//3 20//3 25//3
f 27//3 25//3 22//3
f 28//3 25//3 27//3
f 24//3 27//3 22//3
f 15//3 22//3 25//3
f 23//1 29//1 30//1
f 31//1 30//1 29//1
f 23//1 30//1 24//1
f 31//1 32//1 30//1
f 26//1 24//1 33//1
f 34//1 35//1 32//1
f 34//1 36//1 35//1
f 26//1 33//1 36//1
f 30//1 35//1 33//1
f 36//1 33//1 35//1
f 32//1 35//1 30//1
f 24//1 30//1 33//1
f 37//2 38//2 39//2
f 40//2 41//2 42//2
f 31//2 43//2 32//2
f 42//2 44//2 43//2
f 38//2 44//2 39//2
f 38//2 45//2 44//2
f 44//2 45//2 43//2
f 42//2 41//2 44//2
f 46//2 39//2 44//2
f 32//2 43//2 45//2
f 46//2 44//2 41//2
f 34//2 32//2 45//2
f 40//2 46//2 41//2
f 46//2 37//2 39//2
f 31//2 42//2 43//2
f 34//2 45//2 38//2
f 40//3 47//3 48//3
f 47//3 49//3 48//3
f 40//3 48//3 46//3
f 50//3 48//3 49//3
f 46//3 51//3 37//3
f 50//3 52//3 53//3
f 54//3 53//3 52//3
f 37//3 51//3 54//3
f 51//3 48//3 53//3
f 54//3 51//3 53//3
f 46//3 48//3 51//3
f 50//3 53//3 48//3
f 55//2 52//2 56//2
f 57//2 58//2 49//2
f 50//2 58//2 56//2
f 50//2 49//2 58//2
f 57//2 59//2 58//2
f 59//2 56//2 58//2
f 50//2 56//2 52//2
f 55//2 56//2 59//2
f 60//4 59//4 61//4
f 57//4 62//4 61//4
f 60//4 63//4 59//4
f 55//4 63//4 64//4
f 60//4 61//4 62//4
f 60//4 64//4 63//4
f 55//4 59//4 63//4
f 57//4 61//4 59//4
f 60//5 65//5 64//5
f 60//5 62//5 65//5
f 66//5 64//5 65//5
f 62//5 67//5 65//5
f 71//5 72//5 73//5
f 68//5 74//5 70//5
f 75//5 73//5 72//5
f 69//5 70//5 76//5
f 77//5 78//5 72//5
f 79//5 72//5 78//5
f 80//5 71//5 73//5
f 75//5 72//5 79//5
f 75//5 81//5 73//5
f 82//5 78//5 77//5
f 83//5 79//5 78//5
f 80//5 84//5 67//5
f 81//5 84//5 73//5
f 81//5 66//5 84//5
f 80//5 73//5 84//5
f 77//5 72//5 71//5
f 74//5 83//5 85//5
f 83//5 78//5 85//5
f 82//5 85//5 78//5
f 82//5 76//5 85//5
f 74//5 85//5 70//5
f 76//5 70//5 85//5
f 66//5 65//5 84//5
f 67//5 84//5 65//5
f 26//6 86//6 79//6
f 81//6 87//6 88//6
f 75//6 79//6 86//6
f 83//6 89//6 90//6
f 75//6 87//6 81//6
f 55//6 64//6 91//6
f 74//6 89//6 83//6
f 66//6 52//6 91//6
f 11//6 9//6 89//6
f 34//6 87//6 36//6
f 16//6 89//6 9//6
f 34//6 38//6 87//6
f 28//6 90//6 20//6
f 37//6 54//6 88//6
f 16//6 20//6 90//6
f 54//6 52//6 92//6
f 37//6 88//6 38//6
f 54//6 92//6 88//6
f 26//6 93//6 28//6
f 26//6 79//6 93//6
f 16//6 90//6 89//6
f 38//6 88//6 87//6
f 28//6 93//6 90//6
f 66//6 92//6 52//6
f 11//6 89//6 94//6
f 36//6 87//6 86//6
f 26//6 36//6 86//6
f 11//6 94//6 1//6
f 74//6 94//6 89//6
f 75//6 86//6 87//6
f 81//6 88//6 92//6
f 83//6 90//6 93//6
f 68//6 1//6 95//6
f 1//6 94//6 95//6
f 74//6 95//6 94//6
f 66//6 91//6 64//6
f 83//6 93//6 79//6
f 68//6 95//6 74//6
f 81//6 92//6 66//6
f 55//6 91//6 52//6
f 23//7 77//7 96//7
f 80//7 97//7 98//7
f 77//7 71//7 96//7
f 82//7 99//7 100//7
f 80//7 98//7 71//7
f 57//7 101//7 62//7
f 82//7 100//7 76//7
f 67//7 101//7 49//7
f 4//7 100//7 6//7
f 31//7 29//7 98//7
f 12//7 6//7 100//7
f 31//7 98//7 42//7
f 21//7 13//7 99//7
f 40//7 97//7 47//7
f 12//7 99//7 13//7
f 47//7 102//7 49//7
f 40//7 42//7 97//7
f 47//7 97//7 102//7
f 23//7 21//7 103//7
f 23//7 103//7 77//7
f 12//7 100//7 99//7
f 42//7 98//7 97//7
f 21//7 99//7 103//7
f 67//7 49//7 102//7
f 4//7 104//7 100//7
f 29//7 96//7 98//7
f 23//7 96//7 29//7
f 3//7 104//7 4//7
f 76//7 100//7 104//7
f 71//7 98//7 96//7
f 80//7 102//7 97//7
f 82//7 103//7 99//7
f 3//7 69//7 105//7
f 3//7 105//7 104//7
f 76//7 104//7 105//7
f 69//7 76//7 105//7
f 80//7 67//7 102//7
f 82//7 77//7 103//7
f 62//7 101//7 67//7
f 57//7 49//7 101//7
f 70//5 69//5 68//5
f 2//8 1//8 68//8
f 3//8 2//8 69//8
f 69//8 2//8 68//8
